<svg width="1920" height="1080" viewBox="0 0 1920 1080" fill="none" xmlns="http://www.w3.org/2000/svg">
<rect x="19" y="3" width="1" height="1080" fill="#050505"/>
<rect x="40" y="3" width="1" height="1080" fill="#050505"/>
<rect x="61" y="3" width="1" height="1080" fill="#050505"/>
<rect x="82" y="3" width="1" height="1080" fill="#050505"/>
<rect x="103" y="3" width="1" height="1080" fill="#050505"/>
<rect x="124" y="3" width="1" height="1080" fill="#050505"/>
<rect x="145" y="3" width="1" height="1080" fill="#050505"/>
<rect x="166" y="3" width="1" height="1080" fill="#050505"/>
<rect x="187" y="3" width="1" height="1080" fill="#050505"/>
<rect x="208" y="3" width="1" height="1080" fill="#050505"/>
<rect x="229" y="3" width="1" height="1080" fill="#050505"/>
<rect x="250" y="3" width="1" height="1080" fill="#050505"/>
<rect x="271" y="3" width="1" height="1080" fill="#050505"/>
<rect x="292" y="3" width="1" height="1080" fill="#050505"/>
<rect x="313" y="3" width="1" height="1080" fill="#050505"/>
<rect x="334" y="3" width="1" height="1080" fill="#050505"/>
<rect x="355" y="3" width="1" height="1080" fill="#050505"/>
<rect x="376" y="3" width="1" height="1080" fill="#050505"/>
<rect x="397" y="3" width="1" height="1080" fill="#050505"/>
<rect x="418" y="3" width="1" height="1080" fill="#050505"/>
<rect x="439" y="3" width="1" height="1080" fill="#050505"/>
<rect x="460" y="3" width="1" height="1080" fill="#050505"/>
<rect x="481" y="3" width="1" height="1080" fill="#050505"/>
<rect x="502" y="3" width="1" height="1080" fill="#050505"/>
<rect x="523" y="3" width="1" height="1080" fill="#050505"/>
<rect x="544" y="3" width="1" height="1080" fill="#050505"/>
<rect x="565" y="3" width="1" height="1080" fill="#050505"/>
<rect x="586" y="3" width="1" height="1080" fill="#050505"/>
<rect x="607" y="3" width="1" height="1080" fill="#050505"/>
<rect x="628" y="3" width="1" height="1080" fill="#050505"/>
<rect x="649" y="3" width="1" height="1080" fill="#050505"/>
<rect x="670" y="3" width="1" height="1080" fill="#050505"/>
<rect x="691" y="3" width="1" height="1080" fill="#050505"/>
<rect x="712" y="3" width="1" height="1080" fill="#050505"/>
<rect x="733" y="3" width="1" height="1080" fill="#050505"/>
<rect x="754" y="3" width="1" height="1080" fill="#050505"/>
<rect x="775" y="3" width="1" height="1080" fill="#050505"/>
<rect x="796" y="3" width="1" height="1080" fill="#050505"/>
<rect x="817" y="3" width="1" height="1080" fill="#050505"/>
<rect x="838" y="3" width="1" height="1080" fill="#050505"/>
<rect x="859" y="3" width="1" height="1080" fill="#050505"/>
<rect x="880" y="3" width="1" height="1080" fill="#050505"/>
<rect x="901" y="3" width="1" height="1080" fill="#050505"/>
<rect x="922" y="3" width="1" height="1080" fill="#050505"/>
<rect x="943" y="3" width="1" height="1080" fill="#050505"/>
<rect x="964" y="3" width="1" height="1080" fill="#050505"/>
<rect x="985" y="3" width="1" height="1080" fill="#050505"/>
<rect x="1006" y="3" width="1" height="1080" fill="#050505"/>
<rect x="1027" y="3" width="1" height="1080" fill="#050505"/>
<rect x="1048" y="3" width="1" height="1080" fill="#050505"/>
<rect x="1069" y="3" width="1" height="1080" fill="#050505"/>
<rect x="1090" y="3" width="1" height="1080" fill="#050505"/>
<rect x="1111" y="3" width="1" height="1080" fill="#050505"/>
<rect x="1079" y="1079" width="1" height="1080" transform="rotate(-90 1079 1079)" fill="#050505"/>
<rect x="1079" y="1058" width="1" height="1080" transform="rotate(-90 1079 1058)" fill="#050505"/>
<rect x="1079" y="1037" width="1" height="1080" transform="rotate(-90 1079 1037)" fill="#050505"/>
<rect x="1079" y="1016" width="1" height="1080" transform="rotate(-90 1079 1016)" fill="#050505"/>
<rect x="1079" y="995" width="1" height="1080" transform="rotate(-90 1079 995)" fill="#050505"/>
<rect x="1079" y="974" width="1" height="1080" transform="rotate(-90 1079 974)" fill="#050505"/>
<rect x="1079" y="953" width="1" height="1080" transform="rotate(-90 1079 953)" fill="#050505"/>
<rect x="1079" y="932" width="1" height="1080" transform="rotate(-90 1079 932)" fill="#050505"/>
<rect x="1079" y="911" width="1" height="1080" transform="rotate(-90 1079 911)" fill="#050505"/>
<rect x="1079" y="890" width="1" height="1080" transform="rotate(-90 1079 890)" fill="#050505"/>
<rect x="1079" y="869" width="1" height="1080" transform="rotate(-90 1079 869)" fill="#050505"/>
<rect x="1079" y="848" width="1" height="1080" transform="rotate(-90 1079 848)" fill="#050505"/>
<rect x="1079" y="827" width="1" height="1080" transform="rotate(-90 1079 827)" fill="#050505"/>
<rect x="1079" y="806" width="1" height="1080" transform="rotate(-90 1079 806)" fill="#050505"/>
<rect x="1079" y="785" width="1" height="1080" transform="rotate(-90 1079 785)" fill="#050505"/>
<rect x="1079" y="764" width="1" height="1080" transform="rotate(-90 1079 764)" fill="#050505"/>
<rect x="1079" y="743" width="1" height="1080" transform="rotate(-90 1079 743)" fill="#050505"/>
<rect x="1079" y="722" width="1" height="1080" transform="rotate(-90 1079 722)" fill="#050505"/>
<rect x="1079" y="701" width="1" height="1080" transform="rotate(-90 1079 701)" fill="#050505"/>
<rect x="1079" y="680" width="1" height="1080" transform="rotate(-90 1079 680)" fill="#050505"/>
<rect x="1079" y="659" width="1" height="1080" transform="rotate(-90 1079 659)" fill="#050505"/>
<rect x="1079" y="638" width="1" height="1080" transform="rotate(-90 1079 638)" fill="#050505"/>
<rect x="1079" y="617" width="1" height="1080" transform="rotate(-90 1079 617)" fill="#050505"/>
<rect x="1079" y="596" width="1" height="1080" transform="rotate(-90 1079 596)" fill="#050505"/>
<rect x="1079" y="575" width="1" height="1080" transform="rotate(-90 1079 575)" fill="#050505"/>
<rect x="1079" y="554" width="1" height="1080" transform="rotate(-90 1079 554)" fill="#050505"/>
<rect x="1079" y="533" width="1" height="1080" transform="rotate(-90 1079 533)" fill="#050505"/>
<rect x="1079" y="512" width="1" height="1080" transform="rotate(-90 1079 512)" fill="#050505"/>
<rect x="1079" y="491" width="1" height="1080" transform="rotate(-90 1079 491)" fill="#050505"/>
<rect x="1079" y="470" width="1" height="1080" transform="rotate(-90 1079 470)" fill="#050505"/>
<rect x="1079" y="449" width="1" height="1080" transform="rotate(-90 1079 449)" fill="#050505"/>
<rect x="1079" y="428" width="1" height="1080" transform="rotate(-90 1079 428)" fill="#050505"/>
<rect x="1079" y="407" width="1" height="1080" transform="rotate(-90 1079 407)" fill="#050505"/>
<rect x="1079" y="386" width="1" height="1080" transform="rotate(-90 1079 386)" fill="#050505"/>
<rect x="1079" y="365" width="1" height="1080" transform="rotate(-90 1079 365)" fill="#050505"/>
<rect x="1079" y="344" width="1" height="1080" transform="rotate(-90 1079 344)" fill="#050505"/>
<rect x="1079" y="323" width="1" height="1080" transform="rotate(-90 1079 323)" fill="#050505"/>
<rect x="1079" y="302" width="1" height="1080" transform="rotate(-90 1079 302)" fill="#050505"/>
<rect x="1079" y="281" width="1" height="1080" transform="rotate(-90 1079 281)" fill="#050505"/>
<rect x="1079" y="260" width="1" height="1080" transform="rotate(-90 1079 260)" fill="#050505"/>
<rect x="1079" y="239" width="1" height="1080" transform="rotate(-90 1079 239)" fill="#050505"/>
<rect x="1079" y="218" width="1" height="1080" transform="rotate(-90 1079 218)" fill="#050505"/>
<rect x="1079" y="197" width="1" height="1080" transform="rotate(-90 1079 197)" fill="#050505"/>
<rect x="1079" y="176" width="1" height="1080" transform="rotate(-90 1079 176)" fill="#050505"/>
<rect x="1079" y="155" width="1" height="1080" transform="rotate(-90 1079 155)" fill="#050505"/>
<rect x="1079" y="134" width="1" height="1080" transform="rotate(-90 1079 134)" fill="#050505"/>
<rect x="1079" y="113" width="1" height="1080" transform="rotate(-90 1079 113)" fill="#050505"/>
<rect x="1079" y="92" width="1" height="1080" transform="rotate(-90 1079 92)" fill="#050505"/>
<rect x="1079" y="71" width="1" height="1080" transform="rotate(-90 1079 71)" fill="#050505"/>
<rect x="1079" y="50" width="1" height="1080" transform="rotate(-90 1079 50)" fill="#050505"/>
<rect x="1079" y="29" width="1" height="1080" transform="rotate(-90 1079 29)" fill="#050505"/>
<rect x="1079" y="8" width="1" height="1080" transform="rotate(-90 1079 8)" fill="#050505"/>
<rect x="-1" y="1079" width="1" height="1080" transform="rotate(-90 -1 1079)" fill="#050505"/>
<rect x="-1" y="1058" width="1" height="1080" transform="rotate(-90 -1 1058)" fill="#050505"/>
<rect x="-1" y="1037" width="1" height="1080" transform="rotate(-90 -1 1037)" fill="#050505"/>
<rect x="-1" y="1016" width="1" height="1080" transform="rotate(-90 -1 1016)" fill="#050505"/>
<rect x="-1" y="995" width="1" height="1080" transform="rotate(-90 -1 995)" fill="#050505"/>
<rect x="-1" y="974" width="1" height="1080" transform="rotate(-90 -1 974)" fill="#050505"/>
<rect x="-1" y="953" width="1" height="1080" transform="rotate(-90 -1 953)" fill="#050505"/>
<rect x="-1" y="932" width="1" height="1080" transform="rotate(-90 -1 932)" fill="#050505"/>
<rect x="-1" y="911" width="1" height="1080" transform="rotate(-90 -1 911)" fill="#050505"/>
<rect x="-1" y="890" width="1" height="1080" transform="rotate(-90 -1 890)" fill="#050505"/>
<rect x="-1" y="869" width="1" height="1080" transform="rotate(-90 -1 869)" fill="#050505"/>
<rect x="-1" y="848" width="1" height="1080" transform="rotate(-90 -1 848)" fill="#050505"/>
<rect x="-1" y="827" width="1" height="1080" transform="rotate(-90 -1 827)" fill="#050505"/>
<rect x="-1" y="806" width="1" height="1080" transform="rotate(-90 -1 806)" fill="#050505"/>
<rect x="-1" y="785" width="1" height="1080" transform="rotate(-90 -1 785)" fill="#050505"/>
<rect x="-1" y="764" width="1" height="1080" transform="rotate(-90 -1 764)" fill="#050505"/>
<rect x="-1" y="743" width="1" height="1080" transform="rotate(-90 -1 743)" fill="#050505"/>
<rect x="-1" y="722" width="1" height="1080" transform="rotate(-90 -1 722)" fill="#050505"/>
<rect x="-1" y="701" width="1" height="1080" transform="rotate(-90 -1 701)" fill="#050505"/>
<rect x="-1" y="680" width="1" height="1080" transform="rotate(-90 -1 680)" fill="#050505"/>
<rect x="-1" y="659" width="1" height="1080" transform="rotate(-90 -1 659)" fill="#050505"/>
<rect x="-1" y="638" width="1" height="1080" transform="rotate(-90 -1 638)" fill="#050505"/>
<rect x="-1" y="617" width="1" height="1080" transform="rotate(-90 -1 617)" fill="#050505"/>
<rect x="-1" y="596" width="1" height="1080" transform="rotate(-90 -1 596)" fill="#050505"/>
<rect x="-1" y="575" width="1" height="1080" transform="rotate(-90 -1 575)" fill="#050505"/>
<rect x="-1" y="554" width="1" height="1080" transform="rotate(-90 -1 554)" fill="#050505"/>
<rect x="-1" y="533" width="1" height="1080" transform="rotate(-90 -1 533)" fill="#050505"/>
<rect x="-1" y="512" width="1" height="1080" transform="rotate(-90 -1 512)" fill="#050505"/>
<rect x="-1" y="491" width="1" height="1080" transform="rotate(-90 -1 491)" fill="#050505"/>
<rect x="-1" y="470" width="1" height="1080" transform="rotate(-90 -1 470)" fill="#050505"/>
<rect x="-1" y="449" width="1" height="1080" transform="rotate(-90 -1 449)" fill="#050505"/>
<rect x="-1" y="428" width="1" height="1080" transform="rotate(-90 -1 428)" fill="#050505"/>
<rect x="-1" y="407" width="1" height="1080" transform="rotate(-90 -1 407)" fill="#050505"/>
<rect x="-1" y="386" width="1" height="1080" transform="rotate(-90 -1 386)" fill="#050505"/>
<rect x="-1" y="365" width="1" height="1080" transform="rotate(-90 -1 365)" fill="#050505"/>
<rect x="-1" y="344" width="1" height="1080" transform="rotate(-90 -1 344)" fill="#050505"/>
<rect x="-1" y="323" width="1" height="1080" transform="rotate(-90 -1 323)" fill="#050505"/>
<rect x="-1" y="302" width="1" height="1080" transform="rotate(-90 -1 302)" fill="#050505"/>
<rect x="-1" y="281" width="1" height="1080" transform="rotate(-90 -1 281)" fill="#050505"/>
<rect x="-1" y="260" width="1" height="1080" transform="rotate(-90 -1 260)" fill="#050505"/>
<rect x="-1" y="239" width="1" height="1080" transform="rotate(-90 -1 239)" fill="#050505"/>
<rect x="-1" y="218" width="1" height="1080" transform="rotate(-90 -1 218)" fill="#050505"/>
<rect x="-1" y="197" width="1" height="1080" transform="rotate(-90 -1 197)" fill="#050505"/>
<rect x="-1" y="176" width="1" height="1080" transform="rotate(-90 -1 176)" fill="#050505"/>
<rect x="-1" y="155" width="1" height="1080" transform="rotate(-90 -1 155)" fill="#050505"/>
<rect x="-1" y="134" width="1" height="1080" transform="rotate(-90 -1 134)" fill="#050505"/>
<rect x="-1" y="113" width="1" height="1080" transform="rotate(-90 -1 113)" fill="#050505"/>
<rect x="-1" y="92" width="1" height="1080" transform="rotate(-90 -1 92)" fill="#050505"/>
<rect x="-1" y="71" width="1" height="1080" transform="rotate(-90 -1 71)" fill="#050505"/>
<rect x="-1" y="50" width="1" height="1080" transform="rotate(-90 -1 50)" fill="#050505"/>
<rect x="-1" y="29" width="1" height="1080" transform="rotate(-90 -1 29)" fill="#050505"/>
<rect x="-1" y="8" width="1" height="1080" transform="rotate(-90 -1 8)" fill="#050505"/>
<rect x="1132" y="3" width="1" height="1080" fill="#050505"/>
<rect x="1153" y="3" width="1" height="1080" fill="#050505"/>
<rect x="1174" y="3" width="1" height="1080" fill="#050505"/>
<rect x="1195" y="3" width="1" height="1080" fill="#050505"/>
<rect x="1216" y="3" width="1" height="1080" fill="#050505"/>
<rect x="1237" y="3" width="1" height="1080" fill="#050505"/>
<rect x="1258" y="3" width="1" height="1080" fill="#050505"/>
<rect x="1279" y="3" width="1" height="1080" fill="#050505"/>
<rect x="1300" y="3" width="1" height="1080" fill="#050505"/>
<rect x="1321" y="3" width="1" height="1080" fill="#050505"/>
<rect x="1342" y="3" width="1" height="1080" fill="#050505"/>
<rect x="1363" y="3" width="1" height="1080" fill="#050505"/>
<rect x="1384" y="3" width="1" height="1080" fill="#050505"/>
<rect x="1405" y="3" width="1" height="1080" fill="#050505"/>
<rect x="1426" y="3" width="1" height="1080" fill="#050505"/>
<rect x="1447" y="3" width="1" height="1080" fill="#050505"/>
<rect x="1468" y="3" width="1" height="1080" fill="#050505"/>
<rect x="1489" y="3" width="1" height="1080" fill="#050505"/>
<rect x="1510" y="3" width="1" height="1080" fill="#050505"/>
<rect x="1531" y="3" width="1" height="1080" fill="#050505"/>
<rect x="1552" y="3" width="1" height="1080" fill="#050505"/>
<rect x="1573" y="3" width="1" height="1080" fill="#050505"/>
<rect x="1594" y="3" width="1" height="1080" fill="#050505"/>
<rect x="1615" y="3" width="1" height="1080" fill="#050505"/>
<rect x="1636" y="3" width="1" height="1080" fill="#050505"/>
<rect x="1657" y="3" width="1" height="1080" fill="#050505"/>
<rect x="1678" y="3" width="1" height="1080" fill="#050505"/>
<rect x="1699" y="3" width="1" height="1080" fill="#050505"/>
<rect x="1720" y="3" width="1" height="1080" fill="#050505"/>
<rect x="1741" y="3" width="1" height="1080" fill="#050505"/>
<rect x="1762" y="3" width="1" height="1080" fill="#050505"/>
<rect x="1783" y="3" width="1" height="1080" fill="#050505"/>
<rect x="1804" y="3" width="1" height="1080" fill="#050505"/>
<rect x="1825" y="3" width="1" height="1080" fill="#050505"/>
<rect x="1846" y="3" width="1" height="1080" fill="#050505"/>
<rect x="1867" y="3" width="1" height="1080" fill="#050505"/>
<rect x="1888" y="3" width="1" height="1080" fill="#050505"/>
<rect x="1909" y="3" width="1" height="1080" fill="#050505"/>
</svg>
